<?xml version="1.0" encoding="UTF-8"?>
<svg width="145px" height="160px" viewBox="0 0 145 160" version="1.1" xmlns="http://www.w3.org/2000/svg" xmlns:xlink="http://www.w3.org/1999/xlink">
    <!-- Generator: Sketch 44.1 (41455) - http://www.bohemiancoding.com/sketch -->
    <title>icon-envelope</title>
    <desc>Created with Sketch.</desc>
    <defs></defs>
    <g id="Web-App" stroke="none" stroke-width="1" fill="none" fill-rule="evenodd">
        <g id="Group-15">
            <path d="M9,0 L136,0 C138.761424,-1.28900796e-15 141,2.23857625 141,5 L141,145 C141,147.761424 138.761424,150 136,150 L9,150 C6.23857625,150 4,147.761424 4,145 L4,5 C4,2.23857625 6.23857625,-5.60348209e-15 9,0 Z" id="Rectangle-13-Copy" fill="#F7F7F7"></path>
            <path d="M32.5,22 L112.5,22 C114.985281,22 117,24.0147186 117,26.5 C117,28.9852814 114.985281,31 112.5,31 L32.5,31 C30.0147186,31 28,28.9852814 28,26.5 C28,24.0147186 30.0147186,22 32.5,22 Z" id="Rectangle-13-Copy-2" fill="#000000" opacity="0.049999997"></path>
            <path d="M32.5,40 L112.5,40 C114.985281,40 117,42.0147186 117,44.5 C117,46.9852814 114.985281,49 112.5,49 L32.5,49 C30.0147186,49 28,46.9852814 28,44.5 C28,42.0147186 30.0147186,40 32.5,40 Z" id="Rectangle-13-Copy-3" fill="#000000" opacity="0.049999997"></path>
            <path d="M32.5,58 L72.5,58 C74.9852814,58 77,60.0147186 77,62.5 C77,64.9852814 74.9852814,67 72.5,67 L32.5,67 C30.0147186,67 28,64.9852814 28,62.5 C28,60.0147186 30.0147186,58 32.5,58 Z" id="Rectangle-13-Copy-4" fill="#000000" opacity="0.049999997"></path>
            <path d="M7.82544503,73.3898067 L67.3099549,114.132622 C70.7354766,116.478869 75.2544776,116.464303 78.664803,114.096022 L137.148021,73.482676 C139.416171,71.9075715 142.531745,72.4693963 144.10685,74.7375468 C144.688359,75.5749199 145,76.5700425 145,77.5895259 L145,150.029913 C145,155.55276 140.522847,160.029913 135,160.029913 L10,160.029913 C4.4771525,160.029913 7.78178111e-15,155.55276 7.10542736e-15,150.029913 L0,77.5149564 C-1.2263553e-15,74.7535327 2.23857625,72.5149564 5,72.5149564 C6.00849063,72.5149564 6.99341006,72.8199197 7.82544503,73.3898067 Z" id="Rectangle-13" fill="#4AA2E2"></path>
            <path d="M141.848874,157.28653 C140.059434,158.969137 137.650103,160 135,160 L10,160 C7.36015236,160 4.95921599,158.977099 3.17192746,157.306034 L59.9634471,109.072141 C67.4692696,102.697333 78.498599,102.734905 85.9608156,109.160702 L141.848874,157.28653 L141.848874,157.28653 Z" id="Combined-Shape" fill="#5EB3F2"></path>
        </g>
    </g>
</svg>