<svg xmlns="http://www.w3.org/2000/svg" xmlns:xlink="http://www.w3.org/1999/xlink" width="88" height="74" version="1.1" viewBox="0 0 88 74"><title>scroll-me-mobile</title><desc>Created with Sketch.</desc><g id="Web-App" fill="none" fill-rule="evenodd" stroke="none" stroke-width="1"><g id="Group-4" transform="translate(2.000000, 0.000000)"><path id="scroll-me" fill="#3DD16B" d="M33.3894009,16.667987 C33.3594528,16.2636881 32.715579,15.7695525 31.4577602,15.1855652 C29.9154348,14.4443505 28.9309069,13.8060919 28.504147,13.2707702 C28.077387,12.7354485 27.8640102,12.1533417 27.8640102,11.5244323 C27.8640102,10.1992304 28.6070855,9.04063197 30.0932583,8.04860227 C31.5794311,7.05657257 32.9663801,6.56056516 34.254147,6.56056516 C35.5194528,6.56056516 36.1520962,7.11085262 36.1520962,8.21144406 C36.1520962,8.50343771 36.0079733,8.76547936 35.7197231,8.99757688 C35.431473,9.22967439 35.1862769,9.34572141 34.9841274,9.34572141 C34.9017702,9.34572141 34.7557756,9.29331308 34.5461391,9.18849485 C34.3365027,9.08367661 34.1755342,9.03126828 34.063229,9.03126828 C33.3968845,9.03126828 32.6631679,9.25587541 31.8620571,9.70509641 C31.0609463,10.1543174 30.660397,10.6784007 30.660397,11.277362 C30.660397,11.5693557 30.8026481,11.8519863 31.0871548,12.1252624 C31.3716614,12.3985385 31.9518965,12.7410644 32.8278774,13.1528503 C34.1231313,13.7667857 34.9766384,14.3208166 35.3884243,14.8149597 C35.8002102,15.3091028 36.0061001,15.8556468 36.0061001,16.4546081 C36.0061001,17.5477126 35.2667683,18.4592431 33.7880825,19.1892273 C32.3093967,19.9192114 30.6491757,20.284198 28.8073696,20.284198 C27.4522196,20.284198 26.7746548,19.7938057 26.7746548,18.8130066 C26.7746548,18.4536298 26.9169059,18.1466667 27.2014126,17.8921081 C27.4859192,17.6375496 27.8041126,17.5102722 28.1560024,17.5102722 C28.2982557,17.5102722 28.5191194,17.5626805 28.8186001,17.6674988 C29.1180807,17.779804 29.3950962,17.8359558 29.6496548,17.8359558 C30.3534343,17.8359558 31.0908944,17.7236522 31.8620571,17.4990417 C32.6332198,17.2744312 33.1423293,16.9974158 33.3894009,16.667987 Z M41.1271938,20.1382019 C39.8918361,20.1382019 38.9522296,19.8012912 38.3083462,19.1274597 C37.6644627,18.4536282 37.3425259,17.5177652 37.3425259,16.3198425 C37.3425259,14.4331143 38.1099335,12.3929329 39.644772,10.199237 C41.1796104,8.00554117 42.6844781,6.90870969 44.1594204,6.90870969 C44.870687,6.90870969 45.4771262,7.26246592 45.9787563,7.96998899 C46.4803864,8.67751206 46.7311977,9.4131004 46.7311977,10.1767761 C46.7311977,10.8955297 46.5983052,11.3803067 46.3325161,11.6311218 C46.066727,11.8819369 45.8103005,12.0073425 45.563229,12.0073425 C44.8369884,12.0073425 44.4139783,11.5057199 44.294186,10.5024597 C44.2043418,9.76873206 44.0209127,9.40187375 43.743893,9.40187375 C43.1599058,9.40187375 42.3887546,10.2329201 41.4304165,11.8950378 C40.4720784,13.5571555 39.9929165,15.0133584 39.9929165,16.2636902 C39.9929165,17.2744374 40.5394605,17.7798034 41.6325649,17.7798034 C42.8379746,17.7798034 44.0545965,17.3530499 45.2824673,16.49953 C45.8589675,16.0877441 46.3156687,15.8818542 46.6525845,15.8818542 C47.0643704,15.8818542 47.2702602,16.0877441 47.2702602,16.49953 C47.2702602,17.0760303 46.6095409,17.8265924 45.2880825,18.751239 C43.9666241,19.6758855 42.579675,20.1382019 41.1271938,20.1382019 Z M52.2341274,13.9502136 L52.4250454,13.5908386 C53.3309744,11.7714936 54.3061437,10.2947017 55.3505825,9.16041867 C56.3950213,8.02613566 57.415112,7.45900266 58.4108852,7.45900266 C59.1745609,7.45900266 59.7978457,7.66863598 60.2807583,8.08790891 C60.7636709,8.50718184 61.0051235,9.00506097 61.0051235,9.58156125 C61.0051235,9.94093805 60.9227676,10.2497729 60.7580532,10.5080749 C60.5933388,10.766377 60.3649883,10.8955261 60.0729946,10.8955261 C59.6087996,10.8955261 59.1857895,10.70461 58.8039516,10.3227722 C58.534419,10.0757006 58.3210423,9.95216672 58.1638149,9.95216672 C57.6022887,9.95216672 56.6626822,10.8243911 55.3449673,12.5688659 C54.0272523,14.3133408 53.2336405,16.2749097 52.9641079,18.4536316 C52.8817507,19.082541 52.6983216,19.5223966 52.4138149,19.7732116 C52.1293083,20.0240267 51.7437327,20.1494323 51.2570766,20.1494323 C50.7404725,20.1494323 50.3736142,19.8555714 50.1564907,19.2678405 C49.9393672,18.6801097 49.8308071,17.7199143 49.8308071,16.3872253 C49.8308071,15.8406731 49.8457809,15.103213 49.875729,14.174823 C49.905677,13.298842 49.9917764,12.2282147 50.1340298,10.9629089 C50.1714648,10.6334802 50.197669,10.375182 50.212643,10.1880066 C50.2800262,9.45427894 50.356767,8.95078462 50.4428677,8.67750852 C50.5289683,8.40423241 50.729243,8.14780594 51.0436977,7.90822141 C51.3581524,7.66863688 51.7062935,7.54884641 52.0881313,7.54884641 C52.4924302,7.54884641 52.7993933,7.66489343 53.0090298,7.89699094 C53.2186662,8.12908845 53.3234829,8.3836432 53.3234829,8.66066281 C53.3234829,9.0125526 53.1550275,9.74252576 52.8181118,10.8506042 C52.6983195,11.2324421 52.5972463,11.6891432 52.5148891,12.2207214 L52.2341274,13.9502136 Z M71.7077602,13.8266784 C71.2061301,15.5786403 70.2534215,17.0554322 68.8496059,18.2570984 C67.4457903,19.4587645 66.0438675,20.0595886 64.6437954,20.0595886 C63.5357169,20.0595886 62.6223146,19.653424 61.903561,18.8410827 C61.1848074,18.0287414 60.825436,17.0311114 60.825436,15.8481628 C60.825436,13.9165125 61.4842836,12.0148388 62.8019985,10.1430847 C64.1197134,8.27133054 65.7181675,7.3354675 67.5974087,7.3354675 C68.8776885,7.3354675 69.9146248,7.8090142 70.7082485,8.7561218 C71.5018723,9.7032294 71.8986782,10.8318802 71.8986782,12.1421081 C71.8986782,12.7111214 71.8350395,13.2688958 71.7077602,13.815448 L71.7077602,13.8266784 Z M65.8679165,10.2778503 C65.3438253,10.7420453 64.8309724,11.4832489 64.3293423,12.5014831 C63.8277122,13.5197174 63.5769009,14.5416798 63.5769009,15.5674011 C63.5769009,16.1888235 63.6910761,16.7016764 63.9194302,17.1059753 C64.1477842,17.5102742 64.4491321,17.7124206 64.8234829,17.7124206 C65.7518729,17.7124206 66.7176836,17.1621332 67.7209438,16.0615417 C68.7242041,14.9609503 69.2258266,13.7256111 69.2258266,12.355487 C69.2258266,11.5843243 69.0629865,10.9498092 68.7373012,10.4519226 C68.411616,9.95403598 67.9567866,9.70509641 67.3727993,9.70509641 C66.8187601,9.70509641 66.3208809,9.89601247 65.879147,10.2778503 L65.8679165,10.2778503 Z M78.1652798,0.507342502 C78.9738776,0.507342502 79.3781704,0.949069856 79.3781704,1.83253781 C79.3781704,2.23683671 79.3220186,2.67294889 79.2097134,3.14088742 C79.0974081,3.60882596 78.790445,4.7674244 78.2888149,6.6167175 C77.9219511,7.95689347 77.6430639,9.41871154 77.452145,11.0022155 C77.2612261,12.5857196 77.165768,13.8229305 77.165768,14.7138855 C77.165768,15.6647366 77.2368936,16.7952591 77.379147,18.105487 C77.416582,18.4573768 77.4352993,18.6782405 77.4352993,18.7680847 C77.4352993,19.2173057 77.2705874,19.6028813 76.9411587,19.924823 C76.6117299,20.2467647 76.2523585,20.4077331 75.8630337,20.4077331 C75.3314555,20.4077331 74.9571103,20.1569218 74.7399868,19.6552917 C74.5228633,19.1536616 74.4143032,18.2926676 74.4143032,17.0722839 C74.4143032,14.4443411 74.723138,11.3485062 75.3408169,7.78468625 C75.9584957,4.22086635 76.4638618,2.11704624 76.8569302,1.47316281 C77.2499985,0.829279387 77.6861107,0.507342502 78.1652798,0.507342502 Z M84.7014126,0.507342502 C85.5100104,0.507342502 85.9143032,0.949069856 85.9143032,1.83253781 C85.9143032,2.23683671 85.8581514,2.67294889 85.7458462,3.14088742 C85.6335409,3.60882596 85.3265778,4.7674244 84.8249477,6.6167175 C84.4580839,7.95689347 84.1791967,9.41871154 83.9882778,11.0022155 C83.7973589,12.5857196 83.7019009,13.8229305 83.7019009,14.7138855 C83.7019009,15.6647366 83.7730264,16.7952591 83.9152798,18.105487 C83.9527148,18.4573768 83.9714321,18.6782405 83.9714321,18.7680847 C83.9714321,19.2173057 83.8067202,19.6028813 83.4772915,19.924823 C83.1478628,20.2467647 82.7884913,20.4077331 82.3991665,20.4077331 C81.8675883,20.4077331 81.4932431,20.1569218 81.2761196,19.6552917 C81.0589961,19.1536616 80.950436,18.2926676 80.950436,17.0722839 C80.950436,14.4443411 81.2592708,11.3485062 81.8769497,7.78468625 C82.4946286,4.22086635 82.9999946,2.11704624 83.393063,1.47316281 C83.7861313,0.829279387 84.2222435,0.507342502 84.7014126,0.507342502 Z M43.120602,38.8579284 C43.0307578,39.6290911 42.6002608,40.0146667 41.8290981,40.0146667 C40.8482989,40.0146667 40.3579067,39.3071543 40.3579067,37.8921081 C40.3579067,35.601081 40.4814406,33.6432556 40.7285122,32.018573 C40.9231746,30.7532672 41.0205044,29.5104411 41.0205044,28.2900573 C41.0205044,27.9980637 41.1140907,27.7528676 41.3012661,27.5544616 C41.4884415,27.3560557 41.7504832,27.2568542 42.0873989,27.2568542 C43.2104514,27.2568542 43.7719692,27.9381625 43.7719692,29.3007995 C43.7719692,29.7425335 43.5735663,30.8693126 43.1767544,32.6811706 C42.9371698,33.759301 42.8173794,34.5416825 42.8173794,35.0283386 C44.9586661,30.3264922 46.8902874,27.9756042 48.6123012,27.9756042 C49.3085938,27.9756042 49.8682399,28.2526197 50.2912563,28.8066589 C50.7142728,29.3606981 50.9332647,30.5885504 50.9482387,32.4902527 C50.9557258,34.2272405 51.0455686,35.0957214 51.21777,35.0957214 C51.3525363,35.0957214 51.8204678,34.2534447 52.6215786,32.5688659 C53.5125336,30.7045988 54.2743261,29.473003 54.906979,28.8740417 C55.5396319,28.2750804 56.2040946,27.9756042 56.9003872,27.9756042 C57.731446,27.9756042 58.3341418,28.3331039 58.7084927,29.048114 C59.0828435,29.7631241 59.3448851,30.9703874 59.4946255,32.6699402 C59.6069307,34.0176031 59.7585405,35.0358221 59.9494595,35.7246277 C60.1403784,36.4134332 60.4679304,36.8701343 60.9321255,37.0947448 C61.3064763,37.2744332 61.4936489,37.5439618 61.4936489,37.9033386 C61.4936489,38.2252803 61.2802721,38.5490889 60.8535122,38.8747741 C60.4267522,39.2004594 59.9925118,39.3632995 59.5507778,39.3632995 C58.7871021,39.3632995 58.1900215,38.9870826 57.759518,38.2346374 C57.3290146,37.4821923 57.038897,35.9717093 56.8891567,33.7031433 C56.8067995,32.6100389 56.7188284,31.8856809 56.6252407,31.5300476 C56.531653,31.1744143 56.3912735,30.9966003 56.2040981,30.9966003 C56.0393838,30.9966003 55.7998028,31.2642571 55.4853481,31.7995788 C55.1708934,32.3349005 54.6280929,33.3999127 53.8569302,34.9946472 C53.1756116,36.4321544 52.5897614,37.4353996 52.0993618,38.0044128 C51.6089622,38.5734261 51.0830072,38.8579284 50.5214809,38.8579284 C50.087234,38.8579284 49.6511218,38.6707558 49.2131313,38.296405 C48.7751409,37.9220542 48.5374316,36.563181 48.4999966,34.2197448 C48.4625615,32.1308672 48.3277972,31.0864441 48.0956997,31.0864441 C47.781245,31.0864441 47.0250677,32.0148202 45.827145,33.8716003 C44.6292223,35.7283804 43.7270504,37.3904732 43.120602,38.8579284 Z M73.2070278,35.6572448 C73.2070278,36.4358946 72.5519237,37.3661424 71.2416958,38.4480163 C69.9314679,39.5298902 68.4528043,40.0708191 66.8056606,40.0708191 C65.5403548,40.0708191 64.5445965,39.6721414 63.8183559,38.8747741 C63.0921153,38.0774069 62.7290005,36.9674733 62.7290005,35.5449402 C62.7290005,33.4485755 63.470204,31.4832631 64.9526333,29.6489441 C66.4350626,27.814625 68.0185428,26.8974792 69.7031216,26.8974792 C70.5416674,26.8974792 71.2154888,27.1632643 71.7246059,27.6948425 C72.2337231,28.2264207 72.4882778,28.8590641 72.4882778,29.5927917 C72.4882778,30.8955326 71.8631213,32.136487 70.6127895,33.3156921 C69.3624578,34.4948972 67.7602602,35.3090981 65.8061489,35.7583191 C65.5815384,35.8107282 65.4692348,35.9454925 65.4692348,36.1626159 C65.4692348,36.5219927 65.6283316,36.8645186 65.9465298,37.1902038 C66.264728,37.5158891 66.6896098,37.6787292 67.221188,37.6787292 C68.7260783,37.6787292 70.2197157,36.9038346 71.702145,35.3540222 C71.9866516,35.0545415 72.2636671,34.9048034 72.5331997,34.9048034 C72.9824207,34.9048034 73.2070278,35.1556147 73.2070278,35.6572448 Z M65.6713833,33.6694519 C66.8543319,33.4298673 67.8968833,32.9245013 68.7990688,32.1533386 C69.7012543,31.3821759 70.1523403,30.6821503 70.1523403,30.0532409 C70.1523403,29.8061694 70.0830864,29.5984078 69.9445766,29.4299499 C69.8060668,29.2614921 69.6282529,29.1772644 69.4111294,29.1772644 C68.7597589,29.1772644 68.0372727,29.6564263 67.2436489,30.6147644 C66.4500251,31.5731025 65.9259418,32.5913215 65.6713833,33.6694519 Z" transform="translate(56.344479, 20.289081) rotate(-1.000000) translate(-56.344479, -20.289081)"/><g id="Group-10" stroke="#3DD16B" stroke-linecap="round" stroke-linejoin="round" stroke-width="3" transform="translate(15.500000, 52.000000) scale(-1, 1) rotate(-90.000000) translate(-15.500000, -52.000000) translate(-4.500000, 36.500000)"><path id="Path-3" d="M40,0 C34,19 23.6561779,25.0970967 0.521484375,29.0292969"/><path id="Path-6" d="M11,19 C-4,33 -5.39847075,29.5645164 17.9711034,30.8828125"/></g></g></g></svg>