<?xml version="1.0" encoding="UTF-8"?>
<svg width="101px" height="70px" viewBox="0 0 101 70" version="1.1" xmlns="http://www.w3.org/2000/svg" xmlns:xlink="http://www.w3.org/1999/xlink">
    <!-- Generator: Sketch 46 (44423) - http://www.bohemiancoding.com/sketch -->
    <title>drag-me</title>
    <desc>Created with Sketch.</desc>
    <defs></defs>
    <g id="Web-App" stroke="none" stroke-width="1" fill="none" fill-rule="evenodd">
        <g id="Group-11" transform="translate(2.000000, 0.000000)">
            <path d="M53.7631836,16.0493262 C51.8240463,18.7970613 49.8737077,20.1709082 47.9121094,20.1709082 C47.1184856,20.1709082 46.4783553,19.85833 45.9916992,19.2331641 C45.5050431,18.6079982 45.2617188,17.8125146 45.2617188,16.8466895 C45.2617188,14.8925781 46.0609458,12.9497265 47.6594238,11.0180762 C49.2579019,9.08642589 50.8769449,8.12061524 52.5166016,8.12061524 C53.4599657,8.12061524 54.1300436,8.36768308 54.5268555,8.86182618 C55.0883817,6.40608473 55.421549,4.87126935 55.5263672,4.25733399 C55.7509777,3.11930747 55.9381503,2.36313013 56.0878906,1.9887793 C56.237631,1.61442847 56.4659815,1.32431093 56.7729492,1.11841797 C57.0799169,0.912525017 57.345702,0.809580083 57.5703125,0.809580083 C57.9521503,0.809580083 58.2441396,0.966805073 58.4462891,1.28125977 C58.6484385,1.59571447 58.7495117,1.9925204 58.7495117,2.47168946 C58.7495117,2.68132592 58.5847998,3.28402172 58.2553711,4.27979493 C57.7163059,5.89699051 57.216555,7.85107253 56.7561035,10.1420996 C56.295652,12.4331267 56.0654297,14.2561879 56.0654297,15.6113379 C56.0654297,16.9065918 56.3499321,17.554209 56.9189453,17.554209 C57.210939,17.554209 57.5216455,17.4755965 57.8510742,17.3183691 C58.1805029,17.1686288 58.412597,17.0937598 58.5473633,17.0937598 C58.9142271,17.0937598 59.0976562,17.3071365 59.0976562,17.7338965 C59.0976562,18.2505006 58.7251828,18.7652253 57.9802246,19.2780859 C57.2352665,19.7909466 56.5296257,20.0473731 55.8632812,20.0473731 C55.1445277,20.0473731 54.5904967,19.6617975 54.2011719,18.8906348 C53.811847,18.1194721 53.6658524,17.1723787 53.7631836,16.0493262 Z M52.5166016,10.2880957 C51.5358024,10.2880957 50.5119682,11.0367861 49.4450684,12.5341895 C48.3781685,14.0315928 47.8447266,15.4016963 47.8447266,16.644541 C47.8447266,17.3707816 48.1142551,17.7338965 48.6533203,17.7338965 C49.5667363,17.7338965 50.6560809,16.9215674 51.9213867,15.2968848 C53.1866925,13.6722022 53.8193359,12.3881981 53.8193359,11.444834 C53.8193359,11.1603274 53.6995455,10.896414 53.4599609,10.6530859 C53.2203764,10.4097579 52.9059264,10.2880957 52.5166016,10.2880957 Z M63.7919922,14.2299902 L63.9829102,13.8706152 C64.8888392,12.0512702 65.8640084,10.5744783 66.9084473,9.44019532 C67.9528861,8.3059123 68.9729768,7.7387793 69.96875,7.7387793 C70.7324257,7.7387793 71.3557105,7.94841262 71.838623,8.36768555 C72.3215356,8.78695848 72.5629883,9.28483762 72.5629883,9.8613379 C72.5629883,10.2207147 72.4806323,10.5295495 72.315918,10.7878516 C72.1512036,11.0461536 71.922853,11.1753027 71.6308594,11.1753027 C71.1666643,11.1753027 70.7436543,10.9843867 70.3618164,10.6025488 C70.0922838,10.3554773 69.878907,10.2319434 69.7216797,10.2319434 C69.1601534,10.2319434 68.220547,11.1041677 66.902832,12.8486426 C65.5851171,14.5931175 64.7915053,16.5546864 64.5219727,18.7334082 C64.4396155,19.3623176 64.2561863,19.8021732 63.9716797,20.0529883 C63.6871731,20.3038033 63.3015975,20.429209 62.8149414,20.429209 C62.2983373,20.429209 61.931479,20.135348 61.7143555,19.5476172 C61.497232,18.9598864 61.3886719,17.9996909 61.3886719,16.667002 C61.3886719,16.1204497 61.4036457,15.3829897 61.4335938,14.4545996 C61.4635418,13.5786187 61.5496412,12.5079914 61.6918945,11.2426856 C61.7293296,10.9132568 61.7555338,10.6549586 61.7705078,10.4677832 C61.837891,9.73405558 61.9146317,9.23056127 62.0007324,8.95728516 C62.0868331,8.68400906 62.2871078,8.42758258 62.6015625,8.18799805 C62.9160172,7.94841352 63.2641582,7.82862305 63.6459961,7.82862305 C64.050295,7.82862305 64.3572581,7.94467007 64.5668945,8.17676758 C64.776531,8.4088651 64.8813477,8.66341984 64.8813477,8.94043946 C64.8813477,9.29232924 64.7128923,10.0223024 64.3759766,11.1303809 C64.2561843,11.5122187 64.1551111,11.9689199 64.0727539,12.5004981 L63.7919922,14.2299902 Z M80.3457031,16.0380957 C78.3766178,18.6360905 76.4749441,19.9350684 74.640625,19.9350684 C73.9667935,19.9350684 73.3865584,19.6692833 72.8999023,19.1377051 C72.4132463,18.6061269 72.1699219,17.9285621 72.1699219,17.1049902 C72.1699219,15.1209308 73.0533766,13.0077521 74.8203125,10.7653906 C76.5872484,8.52302916 78.3691316,7.40186524 80.1660156,7.40186524 C81.0794317,7.40186524 81.678384,7.86230985 81.9628906,8.7832129 C82.8238975,8.7832129 83.2543945,9.11263668 83.2543945,9.77149415 C83.2543945,10.0859488 83.1720386,10.6549536 83.0073242,11.4785254 C82.7078436,13.0208508 82.5581055,14.2524466 82.5581055,15.1733496 C82.5581055,16.1316877 82.6236159,16.8055091 82.7546387,17.194834 C82.8856615,17.5841589 82.9811195,17.8387136 83.0410156,17.9585059 C83.1009118,18.0782981 83.2805975,18.2055755 83.5800781,18.3403418 C83.8795588,18.4825951 84.0292969,18.6809981 84.0292969,18.9355566 C84.0292969,19.3173945 83.8365091,19.6355879 83.4509277,19.8901465 C83.0653464,20.1447051 82.6629253,20.2719824 82.2436523,20.2719824 C80.8360932,20.2719824 80.2034498,18.860701 80.3457031,16.0380957 Z M79.671875,9.80518555 C78.9156863,9.80518555 77.9330301,10.6418471 76.723877,12.3151953 C75.5147238,13.9885435 74.9101562,15.4091836 74.9101562,16.5771582 C74.9101562,17.1910936 75.0374336,17.4980566 75.2919922,17.4980566 C76.1754601,17.4980566 77.262933,16.7138034 78.5544434,15.1452734 C79.8459537,13.5767435 80.4916992,12.2047683 80.4916992,11.0293066 C80.4916992,10.6549558 80.4074715,10.3573514 80.2390137,10.1364844 C80.0705558,9.91561739 79.8815115,9.80518555 79.671875,9.80518555 Z M93.7998047,16.3637793 C92.9687458,17.2996564 92.0010635,18.0689358 90.8967285,18.6716406 C89.7923936,19.2743455 88.839685,19.5756934 88.0385742,19.5756934 C87.2449505,19.5756934 86.6291526,19.3435993 86.1911621,18.8794043 C85.7531716,18.4152093 85.5341797,17.775079 85.5341797,16.9589941 C85.5341797,15.7985066 85.9740353,14.5070156 86.8537598,13.0844824 C87.7334842,11.6619493 88.9538496,10.4247383 90.5148926,9.3728125 C92.0759355,8.32088667 93.4816018,7.79493165 94.7319336,7.79493165 C95.4207391,7.79493165 96.015948,7.98210425 96.5175781,8.35645508 C96.6373704,8.44629928 96.7421871,8.52116833 96.8320312,8.58106446 C97.0117196,8.70834374 97.1783033,8.9423095 97.3317871,9.28296875 C97.4852709,9.62362801 97.5620117,9.89877174 97.5620117,10.1084082 C97.5620117,10.2431745 97.4197605,10.6961322 97.1352539,11.4672949 C96.8432603,12.2684057 96.6392421,13.045172 96.5231934,13.7976172 C96.4071446,14.5500624 96.1769223,16.4274036 95.8325195,19.4296973 C95.5255519,22.0426661 94.7955787,23.9518267 93.6425781,25.1572363 C92.4895776,26.362646 91.2093169,26.9653418 89.8017578,26.9653418 C88.3268155,26.9653418 86.8949451,26.4693344 85.5061035,25.4773047 C84.1172619,24.485275 83.4228516,23.6673307 83.4228516,23.0234473 C83.4228516,22.454434 83.699867,22.1699316 84.2539062,22.1699316 C84.4710297,22.1699316 84.9127571,22.3870519 85.5791016,22.8212988 C87.2861413,23.9443513 88.7498311,24.5058691 89.9702148,24.5058691 C90.8986049,24.5058691 91.6772429,23.9237623 92.3061523,22.7595313 C92.9350617,21.5953002 93.4329409,19.4634042 93.7998047,16.3637793 Z M94.0693359,10.1196387 C93.5152967,10.1196387 92.789067,10.4509342 91.890625,11.1135352 C90.992183,11.7761361 90.1611366,12.6689495 89.3974609,13.792002 C88.6337852,14.9150544 88.2519531,15.847174 88.2519531,16.5883887 C88.2519531,16.9777135 88.3942043,17.1723731 88.6787109,17.1723731 C89.6445361,17.1723731 90.6028598,16.7811823 91.5537109,15.9987891 C92.504562,15.2163958 93.2738415,14.3160956 93.8615723,13.2978613 C94.4493031,12.2796271 94.7431641,11.5084759 94.7431641,10.9843848 C94.7431641,10.7223392 94.6757819,10.5127059 94.5410156,10.3554785 C94.4062493,10.1982512 94.2490243,10.1196387 94.0693359,10.1196387 Z M67.3183594,39.1377051 C67.2285152,39.9088678 66.7980182,40.2944434 66.0268555,40.2944434 C65.0460563,40.2944434 64.5556641,39.5869309 64.5556641,38.1718848 C64.5556641,35.8808577 64.679198,33.9230322 64.9262695,32.2983496 C65.120932,31.0330438 65.2182617,29.7902177 65.2182617,28.569834 C65.2182617,28.2778403 65.311848,28.0326442 65.4990234,27.8342383 C65.6861989,27.6358323 65.9482405,27.5366309 66.2851562,27.5366309 C67.4082087,27.5366309 67.9697266,28.2179392 67.9697266,29.5805762 C67.9697266,30.0223102 67.7713236,31.1490893 67.3745117,32.9609473 C67.1349272,34.0390777 67.0151367,34.8214592 67.0151367,35.3081152 C69.1564235,30.6062688 71.0880448,28.2553809 72.8100586,28.2553809 C73.5063511,28.2553809 74.0659972,28.5323963 74.4890137,29.0864356 C74.9120301,29.6404748 75.1310221,30.8683271 75.1459961,32.7700293 C75.1534831,34.5070172 75.243326,35.3754981 75.4155273,35.3754981 C75.5502936,35.3754981 76.0182252,34.5332213 76.8193359,32.8486426 C77.7102909,30.9843754 78.4720834,29.7527797 79.1047363,29.1538184 C79.7373892,28.554857 80.401852,28.2553809 81.0981445,28.2553809 C81.9292034,28.2553809 82.5318992,28.6128805 82.90625,29.3278906 C83.2806008,30.0429007 83.5426425,31.250164 83.6923828,32.9497168 C83.8046881,34.2973798 83.9562979,35.3155988 84.1472168,36.0044043 C84.3381357,36.6932098 84.6656878,37.149911 85.1298828,37.3745215 C85.5042336,37.5542099 85.6914062,37.8237384 85.6914062,38.1831152 C85.6914062,38.505057 85.4780295,38.8288656 85.0512695,39.1545508 C84.6245096,39.480236 84.1902691,39.6430762 83.7485352,39.6430762 C82.9848595,39.6430762 82.3877788,39.2668592 81.9572754,38.5144141 C81.5267719,37.7619689 81.2366544,36.251486 81.0869141,33.9829199 C81.0045569,32.8898155 80.9165858,32.1654575 80.822998,31.8098242 C80.7294103,31.4541909 80.5890309,31.276377 80.4018555,31.276377 C80.2371411,31.276377 79.9975602,31.5440338 79.6831055,32.0793555 C79.3686508,32.6146772 78.8258502,33.6796893 78.0546875,35.2744238 C77.373369,36.711931 76.7875187,37.7151762 76.2971191,38.2841895 C75.8067196,38.8532027 75.2807645,39.1377051 74.7192383,39.1377051 C74.2849913,39.1377051 73.8488791,38.9505325 73.4108887,38.5761816 C72.9728982,38.2018308 72.735189,36.8429577 72.6977539,34.4995215 C72.6603188,32.4106439 72.5255545,31.3662207 72.293457,31.3662207 C71.9790023,31.3662207 71.222825,32.2945968 70.0249023,34.151377 C68.8269797,36.0081571 67.9248077,37.6702498 67.3183594,39.1377051 Z M97.4047852,35.9370215 C97.4047852,36.7156712 96.749681,37.6459191 95.4394531,38.727793 C94.1292252,39.8096669 92.6505616,40.3505957 91.003418,40.3505957 C89.7381122,40.3505957 88.7423539,39.9519181 88.0161133,39.1545508 C87.2898727,38.3571835 86.9267578,37.24725 86.9267578,35.8247168 C86.9267578,33.7283522 87.6679613,31.7630398 89.1503906,29.9287207 C90.6328199,28.0944016 92.2163002,27.1772559 93.9008789,27.1772559 C94.7394248,27.1772559 95.4132462,27.443041 95.9223633,27.9746191 C96.4314804,28.5061973 96.6860352,29.1388407 96.6860352,29.8725684 C96.6860352,31.1753093 96.0608786,32.4162636 94.8105469,33.5954688 C93.5602151,34.7746739 91.9580176,35.5888747 90.0039062,36.0380957 C89.7792958,36.0905048 89.6669922,36.2252691 89.6669922,36.4423926 C89.6669922,36.8017694 89.8260889,37.1442953 90.1442871,37.4699805 C90.4624853,37.7956657 90.8873671,37.9585059 91.4189453,37.9585059 C92.9238356,37.9585059 94.4174731,37.1836113 95.8999023,35.6337988 C96.184409,35.3343182 96.4614244,35.1845801 96.730957,35.1845801 C97.180178,35.1845801 97.4047852,35.4353914 97.4047852,35.9370215 Z M89.8691406,33.9492285 C91.0520892,33.709644 92.0946407,33.2042779 92.9968262,32.4331152 C93.8990117,31.6619525 94.3500977,30.961927 94.3500977,30.3330176 C94.3500977,30.085946 94.2808438,29.8781844 94.142334,29.7097266 C94.0038242,29.5412687 93.8260102,29.457041 93.6088867,29.457041 C92.9575163,29.457041 92.23503,29.9362029 91.4414062,30.894541 C90.6477825,31.8528791 90.1236992,32.8710981 89.8691406,33.9492285 Z" id="drag-me" fill="#3DD06B" transform="translate(71.411865, 20.580088) rotate(-1.000000) translate(-71.411865, -20.580088) "></path>
            <g id="Group-10" transform="translate(0.000000, 33.000000)" stroke="#3DD06B" stroke-width="3" stroke-linecap="round" stroke-linejoin="round">
                <path d="M49.2851562,0.49609375 C39.9790265,23.2887015 24.6561779,29.0970967 1.52148438,33.0292969" id="Path-3"></path>
                <path d="M11.6234471,27 C-5.36946571,37.0228605 -4.39847075,33.5645164 18.9711034,34.8828125" id="Path-6"></path>
            </g>
        </g>
    </g>
</svg>