
<svg xmlns="http://www.w3.org/2000/svg" height="24" width="24" viewBox="0 0 24 25" version="1.1"><desc>Created with Sketch.</desc><g stroke="none" stroke-width="1" fill="none" fill-rule="evenodd" stroke-linecap="round" stroke-linejoin="round"><g transform="translate(-436.000000, -328.000000)" stroke="#A0A9B2"><g transform="translate(135.000000, 290.000000)"><g transform="translate(30.000000, 0.000000)"><g transform="translate(270.000000, 26.000000)"><g transform="translate(1.000000, 12.000000)"><path d="M9.5 18.5L1.5 18.5C0.9 18.5 0.5 18.1 0.5 17.5L0.5 3.5C0.5 2.9 0.9 2.5 1.5 2.5L19.5 2.5C20.1 2.5 20.5 2.9 20.5 3.5L20.5 10M5.5 0.5L5.5 5.5M15.5 0.5L15.5 5.5M0.5 7.5L20.5 7.5"/><circle cx="17.5" cy="17.5" r="6"/><path d="M17.5 14.5L17.5 20.5M20.5 17.5L14.5 17.5"/></g></g></g></g></g></g></svg>
