<svg xmlns="http://www.w3.org/2000/svg" id="magnifying-glass" width="14.791" height="14.792" viewBox="0 0 14.791 14.792">
    <defs>
        <style>
            .cls-1{fill:#878896}
        </style>
    </defs>
    <path id="Path_1059" d="M9.879 1.693a5.788 5.788 0 1 0-.791 8.842 1.219 1.219 0 0 0 .331.613l3.281 3.286a1.223 1.223 0 0 0 1.733-1.734l-3.286-3.282a1.223 1.223 0 0 0-.613-.33 5.794 5.794 0 0 0-.655-7.395zM8.841 8.841a4.321 4.321 0 1 1 0-6.111 4.326 4.326 0 0 1 0 6.111z" class="cls-1" data-name="Path 1059" transform="translate(-.001)"/>
</svg>
