<?xml version="1.0" standalone="no"?>
<!DOCTYPE svg PUBLIC "-//W3C//DTD SVG 20010904//EN"
 "http://www.w3.org/TR/2001/REC-SVG-20010904/DTD/svg10.dtd">
<svg version="1.0" xmlns="http://www.w3.org/2000/svg"
 width="626.000000pt" height="416.000000pt" viewBox="0 0 626.000000 416.000000"
 preserveAspectRatio="xMidYMid meet">

<g transform="translate(0.000000,416.000000) scale(0.100000,-0.100000)"
fill="#000000" stroke="none">
<path d="M3210 3894 c0 -11 71 -72 90 -77 13 -3 24 1 30 13 9 16 3 22 -41 44
-48 25 -79 33 -79 20z"/>
<path d="M4093 3855 c-17 -7 -39 -26 -49 -42 -10 -15 -31 -43 -48 -60 l-30
-33 40 0 c30 0 45 7 67 30 32 33 58 37 100 16 l27 -15 0 38 c0 61 -49 91 -107
66z"/>
<path d="M3087 3833 c-13 -12 -7 -23 11 -23 10 0 34 -9 55 -19 20 -10 37 -15
37 -10 0 5 7 9 15 9 9 0 15 9 15 25 0 24 -2 25 -63 25 -35 0 -67 -3 -70 -7z"/>
<path d="M3361 3681 c-17 -5 -29 -19 -39 -49 -8 -24 -12 -46 -9 -49 4 -3 27
-2 52 1 l46 7 -3 46 c-3 49 -9 55 -47 44z"/>
<path d="M4068 3676 c-15 -11 -18 -29 -18 -91 0 -75 2 -80 36 -121 53 -66 106
-113 120 -107 7 2 14 12 17 21 3 9 12 33 21 54 l16 36 -49 17 c-46 17 -48 20
-71 85 -13 36 -21 78 -18 91 3 20 0 25 -16 26 -12 1 -29 -4 -38 -11z"/>
<path d="M3092 3619 c-86 -28 -92 -32 -86 -52 3 -12 52 -139 108 -282 57 -143
105 -268 109 -277 5 -16 10 -15 64 4 201 70 453 68 673 -7 40 -14 76 -23 80
-20 4 2 38 73 75 156 61 138 66 153 54 176 -7 13 -21 29 -31 34 -44 24 -136
110 -142 133 -5 21 -11 25 -30 20 -12 -3 -177 -6 -365 -7 -332 -2 -343 -1
-357 18 -9 12 -14 34 -11 55 5 45 -8 80 -30 80 -10 -1 -60 -14 -111 -31z"/>
<path d="M3304 2318 c-32 -15 -45 -50 -33 -91 13 -48 33 -63 67 -51 19 7 27
17 29 34 2 43 3 44 15 32 16 -16 29 -15 22 2 -3 8 -1 17 5 21 12 7 -3 44 -23
57 -15 11 -57 9 -82 -4z"/>
<path d="M3680 2270 c0 -5 5 -10 10 -10 6 0 10 5 10 10 0 6 -4 10 -10 10 -5 0
-10 -4 -10 -10z"/>
<path d="M3156 2137 c-14 -15 -26 -30 -26 -35 0 -5 18 -37 40 -71 46 -72 58
-115 70 -265 5 -60 11 -111 14 -113 7 -8 143 -5 189 3 l40 6 -7 76 c-7 85 16
236 41 264 8 9 28 22 44 28 32 14 35 26 17 65 -10 23 -17 26 -62 24 -28 -1
-83 1 -122 6 -50 5 -74 4 -78 -4 -14 -22 -78 -13 -107 15 l-28 26 -25 -25z"/>
<path d="M2300 1820 c0 -113 1 -120 20 -120 19 0 20 7 20 120 0 113 -1 120
-20 120 -19 0 -20 -7 -20 -120z"/>
<path d="M2400 1882 c-34 -27 -17 -50 38 -54 45 -3 47 -4 44 -30 -3 -32 13
-38 21 -8 10 37 28 22 22 -17 l-5 -38 20 40 c24 49 25 88 4 109 -22 23 -115
21 -144 -2z"/>
<path d="M1251 1866 c-52 -18 -60 -66 -23 -123 27 -42 97 -19 105 35 4 26 4
26 12 5 8 -25 25 -31 25 -10 0 6 3 22 6 34 4 15 -2 29 -20 47 -27 28 -53 31
-105 12z"/>
<path d="M1840 1790 c0 -83 1 -90 20 -90 19 0 20 7 20 90 0 83 -1 90 -20 90
-19 0 -20 -7 -20 -90z"/>
<path d="M1920 1780 c0 -73 2 -80 20 -80 18 0 20 7 20 80 0 73 -2 80 -20 80
-18 0 -20 -7 -20 -80z"/>
<path d="M5342 1843 c-23 -5 -42 -37 -42 -74 0 -15 7 -19 39 -19 50 0 71 -8
71 -28 0 -13 2 -13 14 3 12 17 14 16 21 -11 l8 -29 7 25 c5 14 8 44 9 66 1 40
-1 43 -39 58 -41 16 -47 17 -88 9z"/>
<path d="M2150 1760 c0 -51 3 -60 18 -60 14 0 18 9 20 50 2 40 -2 51 -18 60
-19 10 -20 8 -20 -50z"/>
<path d="M2000 1755 c0 -42 3 -55 15 -55 12 0 15 13 15 55 0 42 -3 55 -15 55
-12 0 -15 -13 -15 -55z"/>
<path d="M2220 1750 c0 -43 3 -50 20 -50 17 0 20 7 20 50 0 43 -3 50 -20 50
-17 0 -20 -7 -20 -50z"/>
<path d="M1684 1722 c-54 -59 -70 -71 -122 -86 -41 -13 -75 -17 -104 -12 -189
28 -198 28 -269 6 -81 -24 -83 -28 -130 -182 -26 -86 -32 -126 -38 -246 l-6
-142 27 0 c15 0 29 4 32 9 4 5 11 56 16 113 12 116 40 237 50 216 19 -35 20
-166 2 -278 -11 -63 -18 -120 -15 -126 2 -6 -12 -122 -32 -258 -29 -206 -35
-271 -33 -387 2 -81 7 -140 13 -143 6 -2 24 -2 40 -1 17 2 47 3 68 4 48 1 50
25 3 41 -19 6 -39 17 -45 23 -13 16 46 343 82 453 14 44 36 113 48 154 l22 75
18 -43 c30 -70 50 -160 60 -264 9 -106 55 -325 72 -346 6 -8 10 -31 8 -52 l-2
-38 58 -4 c117 -6 163 16 82 39 -24 7 -49 19 -55 25 -8 9 -18 113 -28 298 -17
294 -26 421 -49 645 -8 72 -11 159 -8 194 l6 64 90 49 c63 34 109 68 155 115
48 49 71 66 88 64 19 -2 22 2 22 32 0 27 -5 36 -25 45 -14 7 -29 12 -33 12 -4
0 -35 -31 -68 -68z"/>
<path d="M2079 1776 c-6 -42 -1 -71 15 -74 14 -3 17 3 14 34 -2 21 -9 39 -15
42 -7 2 -13 1 -14 -2z"/>
<path d="M2359 1593 c-54 -28 -54 -28 -96 -133 -51 -126 -50 -189 3 -190 6 0
21 21 32 47 20 47 21 47 27 20 9 -33 -8 -149 -36 -244 -17 -61 -17 -68 -3 -84
14 -16 13 -26 -6 -116 -35 -156 -31 -239 17 -428 45 -177 45 -186 -18 -199
-38 -7 -39 -36 -1 -37 43 -2 65 2 94 17 23 12 26 20 26 61 0 27 -9 104 -19
173 -10 69 -19 141 -19 161 0 53 83 349 95 337 7 -7 69 -649 66 -684 -1 -6
-15 -17 -31 -24 -39 -16 -36 -44 5 -48 17 -1 44 6 63 18 36 22 32 -16 38 350
2 91 5 224 7 295 l4 130 36 20 c47 26 50 35 29 90 l-17 46 38 70 c44 79 44 96
5 260 l-21 87 -60 18 -60 18 -20 -25 c-11 -13 -31 -48 -45 -78 -23 -49 -24
-62 -18 -144 4 -64 13 -106 30 -143 14 -30 22 -55 18 -58 -4 -2 -34 -7 -67
-10 -33 -4 -71 -10 -84 -13 -23 -6 -24 -5 -18 38 4 24 16 113 27 197 11 83 24
170 29 192 5 22 8 40 7 40 -1 0 -27 -12 -57 -27z m287 -238 c3 -20 -1 -47 -11
-71 -14 -34 -17 -37 -27 -21 -6 12 -7 46 -3 90 7 63 9 69 21 52 8 -10 16 -33
20 -50z m-56 -280 c0 -2 -3 -10 -6 -19 -5 -14 -8 -14 -30 1 -19 12 -22 19 -13
29 8 10 16 11 30 3 10 -5 19 -11 19 -14z"/>
<path d="M2446 1569 c-24 -80 -31 -128 -30 -222 2 -100 15 -167 34 -167 5 0 6
69 3 153 -4 97 -2 166 6 192 6 25 7 43 1 49 -6 6 -11 4 -14 -5z"/>
<path d="M5255 948 c-32 -189 -46 -336 -58 -616 l-4 -92 36 0 37 0 23 148 c36
242 97 532 111 532 12 0 59 -153 131 -432 38 -144 67 -238 77 -245 24 -19 62
-16 62 4 0 10 -13 99 -29 198 -16 99 -34 243 -40 320 -13 160 -18 185 -36 185
-7 0 -15 7 -19 15 -4 12 -30 15 -145 15 l-140 0 -6 -32z"/>
<path d="M3176 848 c-14 -54 -10 -58 52 -58 31 0 64 5 72 10 13 9 12 12 -4 25
-11 8 -25 15 -32 15 -6 0 -17 7 -24 15 -19 23 -57 19 -64 -7z"/>
<path d="M3497 863 c-4 -3 -7 -21 -7 -40 l0 -33 68 0 c68 0 99 10 88 28 -3 5
-21 13 -40 16 -19 4 -39 13 -46 21 -13 15 -51 20 -63 8z"/>
</g>
</svg>
