<svg xmlns="http://www.w3.org/2000/svg" xmlns:xlink="http://www.w3.org/1999/xlink" viewBox="0 0 320 180"><defs><style>.cls-1,.cls-15,.cls-27,.cls-28,.cls-29,.cls-30,.cls-31,.cls-32,.cls-34,.cls-36,.cls-37,.cls-38,.cls-39,.cls-46,.cls-47,.cls-48,.cls-53,.cls-54,.cls-55,.cls-57,.cls-58,.cls-6,.cls-62,.cls-7,.cls-8,.cls-9{fill:none}.cls-2{isolation:isolate}.cls-3{fill:#f8f9fa}.cls-36,.cls-37,.cls-38,.cls-39,.cls-4,.cls-46,.cls-47,.cls-48,.cls-54,.cls-58,.cls-6,.cls-7,.cls-8,.cls-9{opacity:.1}.cls-5{fill:#ea4335}.cls-30,.cls-6,.cls-7,.cls-8,.cls-9{stroke:#ea4335}.cls-15,.cls-27,.cls-28,.cls-29,.cls-30,.cls-31,.cls-32,.cls-34,.cls-36,.cls-37,.cls-38,.cls-39,.cls-46,.cls-47,.cls-48,.cls-53,.cls-54,.cls-55,.cls-57,.cls-58,.cls-6,.cls-62,.cls-7,.cls-8,.cls-9{stroke-linecap:round}.cls-15,.cls-27,.cls-28,.cls-36,.cls-37,.cls-38,.cls-39,.cls-46,.cls-47,.cls-48,.cls-53,.cls-54,.cls-55,.cls-57,.cls-58,.cls-6,.cls-7,.cls-8,.cls-9{stroke-linejoin:round}.cls-36,.cls-39,.cls-46,.cls-6,.cls-9{stroke-width:1.46px}.cls-37,.cls-38,.cls-47,.cls-48,.cls-7,.cls-8{stroke-width:.73px}.cls-16,.cls-37,.cls-39,.cls-42,.cls-43,.cls-46,.cls-48,.cls-50,.cls-8,.cls-9{mix-blend-mode:multiply}.cls-10,.cls-41{opacity:.8}.cls-11{fill:silver}.cls-12,.cls-33{fill:#fff}.cls-13,.cls-16,.cls-70,.cls-71{opacity:.5}.cls-13{fill:url(#linear-gradient)}.cls-14{fill:#ea3f32}.cls-15,.cls-34{stroke:#fff}.cls-15{stroke-width:.68px}.cls-16{fill:url(#linear-gradient-2)}.cls-17{fill:url(#linear-gradient-3)}.cls-18{fill:url(#linear-gradient-4)}.cls-19{fill:url(#linear-gradient-5)}.cls-20{fill:url(#linear-gradient-6)}.cls-21{fill:#e8eaed}.cls-22{fill:#bdc1c6}.cls-23{opacity:.2;fill:url(#linear-gradient-7)}.cls-24{fill:url(#linear-gradient-8)}.cls-25{fill:url(#linear-gradient-9)}.cls-26{fill:url(#linear-gradient-10)}.cls-27,.cls-28{stroke:silver}.cls-27{stroke-width:2px}.cls-29{stroke:#4285f4}.cls-29,.cls-30,.cls-31,.cls-32,.cls-34,.cls-62{stroke-miterlimit:10}.cls-29,.cls-30,.cls-31,.cls-32{stroke-width:5px}.cls-31,.cls-36,.cls-37,.cls-38,.cls-39{stroke:#34a853}.cls-32{stroke:#fbbc04}.cls-33{opacity:.4}.cls-34{stroke-width:.8px;stroke-dasharray:5 3}.cls-35,.cls-41{fill:#34a853}.cls-40{fill:url(#linear-gradient-11)}.cls-42{opacity:.3;fill:url(#linear-gradient-12)}.cls-43{fill:url(#linear-gradient-13)}.cls-44{clip-path:url(#clip-path)}.cls-45{fill:#4285f4}.cls-46,.cls-47,.cls-48{stroke:#2196f3}.cls-49{fill:url(#linear-gradient-14)}.cls-50{fill:url(#linear-gradient-15)}.cls-51{fill:#1d6bdd}.cls-52{fill:url(#radial-gradient)}.cls-53,.cls-57{stroke:#d9dce0}.cls-53,.cls-54{stroke-width:1.01px}.cls-54,.cls-58{stroke:#5f6368}.cls-54{stroke-dasharray:2.01 4.03}.cls-55{stroke:#e8eaed}.cls-56{fill:url(#linear-gradient-16)}.cls-58{stroke-dasharray:2 4}.cls-59{fill:#e9eaed}.cls-60{fill:#dadce0}.cls-61{fill:url(#linear-gradient-17)}.cls-62{stroke:#ed8900}.cls-63{fill:#d9dce0}.cls-64,.cls-65,.cls-66{opacity:.7}.cls-64{fill:url(#linear-gradient-18)}.cls-65{fill:url(#linear-gradient-19)}.cls-67{fill:url(#linear-gradient-20)}.cls-68{fill:url(#linear-gradient-21)}.cls-69{fill:url(#linear-gradient-22)}.cls-70{fill:url(#linear-gradient-23)}.cls-71{fill:url(#linear-gradient-24)}</style><linearGradient id="linear-gradient" x1="941.05" x2="941.05" y1="619.33" y2="616.29" gradientTransform="translate(-582.17 -628.38) rotate(7.14)" gradientUnits="userSpaceOnUse"><stop offset=".08" stop-color="#e8eaed"/><stop offset="1" stop-color="#c8cbd0"/></linearGradient><linearGradient id="linear-gradient-2" x1="936.92" x2="945.32" y1="610.44" y2="610.44" gradientTransform="translate(-665.38 -516.09)" gradientUnits="userSpaceOnUse"><stop offset="0" stop-color="#f29900"/><stop offset="1" stop-color="#f29900" stop-opacity="0"/></linearGradient><linearGradient id="linear-gradient-3" x1="315.27" x2="274.57" y1="83.49" y2="118.69" gradientTransform="translate(356.94 -175.32) rotate(82.6)" gradientUnits="userSpaceOnUse"><stop offset="0" stop-color="#fff"/><stop offset=".78" stop-color="#fff" stop-opacity="0"/></linearGradient><linearGradient id="linear-gradient-4" x1="170.49" x2="139.7" y1="134.25" y2="134.25" gradientUnits="userSpaceOnUse"><stop offset="0" stop-color="#9aa0a6"/><stop offset="1" stop-color="#9aa0a6" stop-opacity="0"/></linearGradient><linearGradient id="linear-gradient-5" x1="186.66" x2="158.4" y1="141.93" y2="141.93" xlink:href="#linear-gradient-4"/><linearGradient id="linear-gradient-6" x1="224.9" x2="190.31" y1="155.42" y2="155.42" xlink:href="#linear-gradient-4"/><linearGradient id="linear-gradient-7" x1="232.31" x2="232.31" y1="170.7" y2="139.01" gradientUnits="userSpaceOnUse"><stop offset="0" stop-color="#9aa0a6"/><stop offset=".15" stop-color="#9aa0a6" stop-opacity=".97"/><stop offset=".31" stop-color="#9aa0a6" stop-opacity=".9"/><stop offset=".46" stop-color="#9aa0a6" stop-opacity=".77"/><stop offset=".62" stop-color="#9aa0a6" stop-opacity=".6"/><stop offset=".79" stop-color="#9aa0a6" stop-opacity=".37"/><stop offset=".95" stop-color="#9aa0a6" stop-opacity=".1"/><stop offset="1" stop-color="#9aa0a6" stop-opacity="0"/></linearGradient><linearGradient id="linear-gradient-8" x1="216.42" x2="195.13" y1="107.93" y2="107.93" gradientUnits="userSpaceOnUse"><stop offset="0" stop-color="#9aa0a6"/><stop offset=".33" stop-color="#9ea4aa"/><stop offset=".68" stop-color="#abb0b5"/><stop offset="1" stop-color="#bdc1c6"/></linearGradient><linearGradient id="linear-gradient-9" x1="216.42" x2="195.13" y1="67.9" y2="67.9" xlink:href="#linear-gradient-8"/><linearGradient id="linear-gradient-10" x1="247.67" x2="247.67" y1="163.23" y2="149.48" xlink:href="#linear-gradient-8"/><linearGradient id="linear-gradient-11" x1="175.72" x2="150.78" y1="86.54" y2="107.81" gradientTransform="translate(238.06 -41.12) rotate(82.6)" xlink:href="#linear-gradient-3"/><linearGradient id="linear-gradient-12" x1="814.62" x2="814.62" y1="599.12" y2="604.01" gradientTransform="translate(-596.76 -597.93) rotate(7.1)" xlink:href="#linear-gradient"/><linearGradient id="linear-gradient-13" x1="169.94" x2="160.82" y1="90" y2="98.8" gradientUnits="userSpaceOnUse"><stop offset="0" stop-color="#34a853" stop-opacity=".4"/><stop offset="1" stop-color="#34a853" stop-opacity="0"/></linearGradient><clipPath id="clip-path"><rect width="50.69" height="78.63" x="156.58" y="77.23" class="cls-1"/></clipPath><linearGradient id="linear-gradient-14" x1="210.45" x2="184.04" y1="68.71" y2="115.28" gradientTransform="translate(19.2 -25.85) rotate(8.5)" xlink:href="#linear-gradient-3"/><linearGradient id="linear-gradient-15" x1="242.8" x2="182.91" y1="104.07" y2="129.49" gradientUnits="userSpaceOnUse"><stop offset="0" stop-color="#4285f4" stop-opacity=".4"/><stop offset="1" stop-color="#4285f4" stop-opacity="0"/></linearGradient><radialGradient id="radial-gradient" cx="-842.02" cy="-2206.01" r="17.6" gradientTransform="matrix(0.99, -0.15, -0.15, -0.99, 664.47, -2212.12)" gradientUnits="userSpaceOnUse"><stop offset="0" stop-color="#fff" stop-opacity=".1"/><stop offset="1" stop-color="#fff" stop-opacity="0"/></radialGradient><linearGradient id="linear-gradient-16" x1="79.05" x2="28.33" y1="154.48" y2="154.48" xlink:href="#linear-gradient-4"/><linearGradient id="linear-gradient-17" x1="77.5" x2="77.5" y1="48.19" y2="16.66" gradientUnits="userSpaceOnUse"><stop offset="0" stop-color="#f49102"/><stop offset="1" stop-color="#fab704"/></linearGradient><linearGradient id="linear-gradient-18" x1="155.61" x2="69.82" y1="89.79" y2="142.41" gradientUnits="userSpaceOnUse"><stop offset=".22" stop-color="#9aa0a6"/><stop offset="1" stop-color="#9aa0a6" stop-opacity="0"/></linearGradient><linearGradient id="linear-gradient-19" x1="160.3" x2="75.31" y1="98.88" y2="151.01" xlink:href="#linear-gradient-18"/><linearGradient id="linear-gradient-20" x1="104.55" x2="43.23" y1="33.83" y2="63.11" xlink:href="#linear-gradient-18"/><linearGradient id="linear-gradient-21" x1="107.78" x2="46.46" y1="40.32" y2="69.61" xlink:href="#linear-gradient-18"/><linearGradient id="linear-gradient-22" x1="111" x2="49.68" y1="46.82" y2="76.11" xlink:href="#linear-gradient-18"/><linearGradient id="linear-gradient-23" x1="291.9" x2="167.53" y1="78.35" y2="126.9" xlink:href="#linear-gradient-4"/><linearGradient id="linear-gradient-24" x1="84.03" x2="248.3" y1="138.31" y2="95.08" gradientTransform="translate(7.8 -15.06) rotate(4.04)" xlink:href="#linear-gradient-4"/></defs><title>12. About these terms</title><g class="cls-2"><g id="Titles"><rect width="56.73" height="35.02" x="249.89" y="97.99" class="cls-3" transform="translate(127.86 376.55) rotate(-82.6)"/><g class="cls-4"><rect width="56.73" height="35.02" x="249.89" y="97.99" class="cls-5" transform="translate(127.86 376.55) rotate(-82.6)"/></g><line x1="285.24" x2="292.18" y1="95.36" y2="96.26" class="cls-6"/><line x1="283.88" x2="290.82" y1="105.85" y2="106.76" class="cls-7"/><line x1="268.4" x2="290.14" y1="109.18" y2="112" class="cls-8"/><line x1="267.72" x2="289.45" y1="114.43" y2="117.25" class="cls-7"/><line x1="267.04" x2="288.77" y1="119.67" y2="122.5" class="cls-8"/><line x1="266.36" x2="288.1" y1="124.87" y2="127.69" class="cls-8"/><line x1="278.59" x2="287.42" y1="131.8" y2="132.94" class="cls-9"/><g class="cls-10"><path d="M269.83,96.43l4.15,4.88a1.3,1.3,0,0,0,1.75.22l5.22-3.7Z" class="cls-11"/><path d="M275.73,101.53a1.3,1.3,0,0,1-1.75-.22l-4.15-4.88-1,8.34,11.12,1.4,1-8.34Z" class="cls-12"/><path d="M275.73,101.53a1.3,1.3,0,0,1-1.75-.22l-.12-.14-5.07,3.6,11.12,1.4-4-4.74Z" class="cls-12"/><path d="M275.66,101.53a1.31,1.31,0,0,1-1.76-.22l-.12-.14-5.07,3.6,11.12,1.4-4-4.74Z" class="cls-13"/><path d="M280,94.28l-8.34-1-.42,3.38-.16,1.27,2.92,3.43a1.3,1.3,0,0,0,1.75.22l3.67-2.6.16-1.28Z" class="cls-14"/><path d="M275.19,99.12h0a1.06,1.06,0,0,1-.91-1.18h0a1.07,1.07,0,0,1,1.43-.85l.28.11-.18,1.44A.55.55,0,0,1,275.19,99.12Z" class="cls-15"/><path d="M275.84,98.39a.8.8,0,0,0,.69.9.82.82,0,0,0,.9-.7l0-.2" class="cls-15"/><path d="M275,100.31a2.2,2.2,0,1,1,.55-4.37,2.19,2.19,0,0,1,1.91,2.45" class="cls-15"/><rect width="8.41" height="1.2" x="271.54" y="93.75" class="cls-16" transform="translate(13.87 -33.55) rotate(7.14)"/></g><rect width="56.73" height="35.02" x="249.89" y="97.99" class="cls-17" transform="translate(127.86 376.55) rotate(-82.6)"/><rect width="32.44" height="4.36" x="138.8" y="132.07" class="cls-18"/><rect width="32.44" height="4.36" x="156.24" y="139.76" class="cls-19"/><rect width="32.44" height="4.36" x="184.65" y="153.24" class="cls-20"/><polygon points="170.98 128.75 194.02 128.75 194.02 144.11 178.66 136.43 170.98 128.75" class="cls-21"/><polygon points="209.41 136.43 217.09 144.11 186.36 144.11 194.04 136.43 194.04 71.73 209.41 71.73 209.41 136.43" class="cls-22"/><circle cx="255.21" cy="71.73" r="7.68" class="cls-21"/><circle cx="217.09" cy="149.92" r="7.68" class="cls-21"/><polyline points="262.89 149.92 262.89 71.73 255.21 64.05 201.72 64.05 209.41 71.73 209.41 149.92 217.09 157.6 252.79 157.6" class="cls-21"/><path d="M255.21,64.05H201.72l7.69,7.68v78.19a7.68,7.68,0,0,0,7.68,7.68h35.7l10.1-7.68V71.73A7.68,7.68,0,0,0,255.21,64.05Z" class="cls-23"/><polygon points="209.39 136.44 209.39 144.12 186.34 144.12 194.03 136.44 194.03 71.74 209.39 71.74 209.39 136.44" class="cls-24"/><path d="M194,71.74a7.68,7.68,0,1,1,15.36,0" class="cls-25"/><path d="M194,136.43a7.68,7.68,0,0,1-15.36,0" class="cls-21"/><path d="M163.29,136.43a7.69,7.69,0,0,1,15.37,0" class="cls-22"/><path d="M217.09,157.6a7.68,7.68,0,0,0,7.68-7.68h45.81v7.68Z" class="cls-22"/><path d="M278.26,149.92a7.69,7.69,0,0,1-15.37,0" class="cls-22"/><path d="M270.58,149.92H224.77a7.68,7.68,0,0,1-7.68,7.68h53.49a7.68,7.68,0,0,0,7.68-7.68Z" class="cls-26"/><line x1="226.65" x2="246.88" y1="76.56" y2="76.56" class="cls-27"/><line x1="220" x2="253.54" y1="100.86" y2="100.86" class="cls-28"/><line x1="220" x2="253.54" y1="125.07" y2="125.07" class="cls-28"/><line x1="220" x2="253.54" y1="133.17" y2="133.17" class="cls-28"/><line x1="236.77" x2="253.54" y1="141.24" y2="141.24" class="cls-27"/><line x1="226.18" x2="226.18" y1="88.32" y2="88.32" class="cls-29"/><line x1="247.36" x2="247.36" y1="88.32" y2="88.32" class="cls-30"/><line x1="233.24" x2="233.24" y1="88.32" y2="88.32" class="cls-31"/><line x1="240.3" x2="240.3" y1="88.32" y2="88.32" class="cls-32"/><rect width="44.27" height="14.76" x="214.51" y="105.64" class="cls-33"/><rect width="43.45" height="14.01" x="214.96" y="106.01" class="cls-34"/><rect width="56.73" height="35.02" x="114.07" y="97.43" class="cls-3" transform="translate(10.1 241.37) rotate(-82.6)"/><g class="cls-4"><rect width="56.73" height="35.02" x="114.07" y="97.43" class="cls-35" transform="translate(10.1 241.37) rotate(-82.6)"/></g><line x1="149.42" x2="156.36" y1="94.8" y2="95.7" class="cls-36"/><line x1="133.37" x2="154.99" y1="103.38" y2="106.19" class="cls-37"/><line x1="132.58" x2="154.31" y1="108.62" y2="111.44" class="cls-37"/><line x1="131.9" x2="153.63" y1="113.86" y2="116.69" class="cls-37"/><line x1="131.21" x2="152.95" y1="119.11" y2="121.94" class="cls-38"/><line x1="130.54" x2="152.27" y1="124.31" y2="127.13" class="cls-37"/><line x1="143.44" x2="151.59" y1="131.32" y2="132.38" class="cls-39"/><rect width="56.73" height="35.02" x="114.07" y="97.43" class="cls-40" transform="translate(10.1 241.37) rotate(-82.6)"/><path d="M143,93.12l-5.57-.7a3.51,3.51,0,0,0-.87,7l2.09.26,2.44,3.13.34-2.78.7.09a3.51,3.51,0,0,0,.87-7Z" class="cls-41"/><g class="cls-10"><path d="M139.42,99l-2.08-.26a3.5,3.5,0,0,1-2.09-5.91,3.5,3.5,0,0,0,1.3,6.52l2.09.26,2.44,3.13.17-1.39Z" class="cls-42"/></g><polygon points="159.54 92.69 161.29 105.68 163.05 92.16 159.54 92.69" class="cls-43"/><g class="cls-44"><rect width="35.02" height="56.73" x="165.99" y="87.87" class="cls-3" transform="translate(-15.17 28.41) rotate(-8.5)"/><g class="cls-4"><rect width="35.02" height="56.73" x="165.99" y="87.87" class="cls-45" transform="translate(-15.17 28.41) rotate(-8.5)"/></g><line x1="184.7" x2="191.62" y1="94.95" y2="93.91" class="cls-46"/><line x1="186.27" x2="193.19" y1="105.41" y2="104.38" class="cls-47"/><line x1="172.29" x2="193.97" y1="112.85" y2="109.61" class="cls-47"/><line x1="173.08" x2="194.75" y1="118.09" y2="114.85" class="cls-48"/><line x1="173.86" x2="195.54" y1="123.32" y2="120.08" class="cls-47"/><line x1="174.63" x2="196.31" y1="128.5" y2="125.26" class="cls-48"/><line x1="188.16" x2="197.09" y1="131.83" y2="130.5" class="cls-46"/><rect width="35.02" height="56.73" x="165.99" y="87.87" class="cls-49" transform="translate(-15.17 28.41) rotate(-8.5)"/><polygon points="199.72 142.49 205.01 141.7 199.29 103.38 191.28 104.35 192.04 115.64 200.08 115.03 199.72 142.49" class="cls-50"/><g class="cls-10"><path d="M183.2,107.4a.84.84,0,0,0,.7-.94l-1.29-8.3a.83.83,0,0,0-1-.69l-8.07,1.25,4.78,9.43,4.83-.75Z" class="cls-12"/><path d="M181.71,97.84a.5.5,0,0,1,.34.09.4.4,0,0,1,.18.28l1.29,8.3a.42.42,0,0,1-.08.33.42.42,0,0,1-.3.18l-4.56.71L174.16,99l7.55-1.18m-.05-.37-8.07,1.25,4.78,9.43,4.83-.75a.84.84,0,0,0,.7-.94l-1.29-8.3a.83.83,0,0,0-1-.69Z" class="cls-12"/><polygon points="177.24 105.92 178.37 108.15 180.13 105.47 177.24 105.92" class="cls-51"/><path d="M170.5,96.65a.83.83,0,0,0-.69.95l1.3,8.43a.84.84,0,0,0,1,.69l8.06-1.25-4.8-9.57Z" class="cls-45"/><path d="M181.66,97.47l-5.14.8-1.19-2.37-4.83.75a.83.83,0,0,0-.69.95l1.3,8.43a.84.84,0,0,0,1,.69l5.17-.8,1.13,2.23,4.83-.75a.84.84,0,0,0,.7-.94l-.52-3.32-.77-5A.83.83,0,0,0,181.66,97.47Z" class="cls-52"/></g></g><line x1="217.57" x2="217.57" y1="39.64" y2="95.18" class="cls-53"/><line x1="217.57" x2="217.57" y1="39.64" y2="95.18" class="cls-54"/><path d="M227,30,88.64,27.9V42.55L227,39.44a3,3,0,0,0,2.93-3V33A3,3,0,0,0,227,30Z" class="cls-55"/><polyline points="225.84 30.01 217.68 39.64 209.7 29.77 199.43 40.04 188.85 29.46 177.8 40.52 166.32 29.05 154.39 40.98 142.14 28.73 129.19 41.69 115.74 28.25 101.89 42.1 87.24 27.45" class="cls-55"/><rect width="53.56" height="6.14" x="18.53" y="151.41" class="cls-56"/><line x1="47" x2="47" y1="41.01" y2="58.15" class="cls-57"/><line x1="47" x2="47" y1="41.01" y2="58.15" class="cls-58"/><rect width="23.7" height="8.04" x="35.15" y="58.15" class="cls-59" rx="1.84"/><rect width="23.7" height="8.04" x="35.15" y="66.19" class="cls-60" rx="1.84"/><rect width="23.7" height="8.04" x="35.15" y="74.23" class="cls-59" rx="1.84"/><rect width="13.22" height="99.97" x="70.14" y="45.19" class="cls-55"/><polyline points="70.51 45.19 82.98 57.67 70.07 70.58 83.04 83.56 70.24 96.36 82.58 108.7 70.62 120.66 83.36 133.4 70.31 146.44" class="cls-55"/><path d="M61.59,29.14,38.2,28.78a3,3,0,0,0-3.05,3V38.2a3,3,0,0,0,3.07,3l24.32-.52" class="cls-55"/><polyline points="59.33 29.05 47 41.01 36.05 29.64" class="cls-55"/><path d="M64.34,145.58H89.16V135.44a1.84,1.84,0,0,0-1.84-1.84H66.18a1.84,1.84,0,0,0-1.84,1.84Z" class="cls-59"/><path d="M61.61,48.67H89.08a2.76,2.76,0,0,0,2.57-1.75L95.83,36.3a4.56,4.56,0,0,0,0-3.37L91.65,22.3a2.76,2.76,0,0,0-2.57-1.75H61.61a2.77,2.77,0,0,0-2.76,2.77V45.91A2.77,2.77,0,0,0,61.61,48.67Z" class="cls-61"/><rect width="6.45" height="10.33" x="62.54" y="24.24" class="cls-21" rx=".92"/><rect width="6.45" height="10.33" x="71.75" y="24.24" class="cls-21" rx=".92"/><path d="M90.71,34.56H81.88a.92.92,0,0,1-.92-.92V25.16a.92.92,0,0,1,.92-.92h5.8a.92.92,0,0,1,.87.61l3,8.48A.92.92,0,0,1,90.71,34.56Z" class="cls-21"/><path d="M58.85,157.55h35.8V147.42a1.84,1.84,0,0,0-1.84-1.84H60.69a1.84,1.84,0,0,0-1.84,1.84Z" class="cls-60"/><line x1="62.54" x2="90.71" y1="38.4" y2="38.4" class="cls-62"/><line x1="62.54" x2="90.71" y1="41.16" y2="41.16" class="cls-62"/><circle cx="47.4" cy="84.61" r="2.49" class="cls-63"/><path d="M64.34,145.58H83.16v-12h-17a1.84,1.84,0,0,0-1.84,1.84Z" class="cls-64"/><path d="M58.85,157.55h29.8v-12h-28a1.84,1.84,0,0,0-1.84,1.84Z" class="cls-65"/><g class="cls-66"><path d="M37,58.15H53.85a0,0,0,0,1,0,0v8a0,0,0,0,1,0,0H37a1.84,1.84,0,0,1-1.84-1.84V60A1.84,1.84,0,0,1,37,58.15Z" class="cls-67"/><path d="M37,66.19H53.85a0,0,0,0,1,0,0v8a0,0,0,0,1,0,0H37a1.84,1.84,0,0,1-1.84-1.84V68A1.84,1.84,0,0,1,37,66.19Z" class="cls-68"/><path d="M37,74.23H53.85a0,0,0,0,1,0,0v8a0,0,0,0,1,0,0H37a1.84,1.84,0,0,1-1.84-1.84V76.07A1.84,1.84,0,0,1,37,74.23Z" class="cls-69"/></g><polygon points="237.81 112.61 209.41 114.61 209.27 97.47 236.68 96.67 237.81 112.61" class="cls-70"/><rect width="43.45" height="15.97" x="195.85" y="95.18" class="cls-12" transform="translate(-6.72 15.57) rotate(-4.04)"/><rect width="43.45" height="15.97" x="195.85" y="95.18" class="cls-71" transform="translate(-6.72 15.57) rotate(-4.04)"/><line x1="200.57" x2="234.02" y1="100.45" y2="98.09" class="cls-28"/><line x1="201.14" x2="234.59" y1="108.53" y2="106.17" class="cls-28"/></g></g></svg>