<svg width="167" height="81" viewBox="0 0 167 81" fill="none" xmlns="http://www.w3.org/2000/svg">
<path d="M0.980664 72H4.23666C4.56666 72 4.76466 71.846 4.76466 71.582V71.494C4.76466 70.878 3.46666 70.614 3.81866 69.602L4.30266 68.238H9.86866L10.3747 69.602C10.7487 70.592 9.42866 70.878 9.42866 71.494V71.582C9.42866 71.846 9.62666 72 9.95666 72H15.5887C15.9187 72 16.1167 71.846 16.1167 71.582V71.494C16.1167 70.878 15.3247 70.746 14.8407 69.602L10.2207 58.888C9.80266 57.898 11.0567 57.392 11.0567 56.886V56.798C11.0567 56.534 10.8367 56.38 10.5507 56.38H5.49066C5.18266 56.38 4.98466 56.534 4.98466 56.798V56.886C4.98466 57.414 6.17266 58.096 5.84266 58.954L1.72866 69.602C1.26666 70.768 0.452664 70.878 0.452664 71.494V71.582C0.452664 71.846 0.650664 72 0.980664 72ZM4.89666 66.588L7.09666 60.494L9.31866 66.588H4.89666ZM21.2669 72.198C24.3249 72.198 26.0629 70.79 26.0629 68.964C26.0629 64.916 20.4309 66.5 20.4309 63.486C20.4309 62.848 20.7829 62.232 21.4649 62.232C22.9829 62.232 22.2789 65.202 24.4129 65.202C25.2269 65.202 25.8869 64.63 25.8869 63.86C25.8869 62.43 24.0609 61.22 21.2669 61.22C18.5169 61.22 16.6249 62.606 16.6249 64.564C16.6249 68.832 22.4549 67.138 22.4549 70.02C22.4549 70.9 21.9269 71.23 21.2669 71.23C19.4409 71.23 20.1889 68.216 17.9889 68.216C17.1089 68.216 16.4269 68.634 16.4269 69.624C16.4269 71.164 18.4949 72.198 21.2669 72.198ZM31.6817 72.22C34.0797 72.22 35.3337 70.438 35.3337 68.744C35.3337 68.326 34.8057 68.194 34.4977 68.59C34.2557 68.986 33.9037 69.404 33.0457 69.404C32.4957 69.404 32.0557 68.964 32.0557 68.216V62.936H34.3217C34.6077 62.936 34.8277 62.716 34.8277 62.43V61.946C34.8277 61.66 34.6077 61.44 34.3217 61.44H32.0557V59.218C32.0557 58.866 31.8137 58.646 31.4617 58.646H30.9557C30.6697 58.646 30.4277 58.866 30.3617 59.218C30.0757 60.56 29.0197 61.44 27.6777 61.44H27.2597C26.9517 61.44 26.7537 61.638 26.7537 61.946V62.43C26.7537 62.716 26.9737 62.936 27.2597 62.936H28.0957V68.15C28.0957 70.812 29.5037 72.22 31.6817 72.22ZM45.0668 68.524C44.6708 69.052 43.8128 69.492 42.7128 69.492C41.4808 69.492 40.5128 68.81 39.9408 67.71C40.6008 67.732 41.3708 67.688 42.1408 67.556C44.2088 67.226 45.6608 65.95 45.6608 64.41C45.6608 62.474 43.9008 61.198 41.2828 61.22C38.3348 61.242 35.8268 63.376 35.8268 66.654C35.8268 69.976 38.1368 72.22 41.3928 72.22C44.5608 72.22 45.8148 70.042 45.8808 68.832C45.9028 68.348 45.3748 68.216 45.0668 68.524ZM40.8208 62.386C41.5468 62.386 42.0968 63.156 42.1188 64.124C42.1188 65.642 41.5908 66.324 40.6228 66.5C40.3368 66.544 39.9408 66.566 39.5228 66.544C39.3908 66.016 39.3248 65.444 39.3248 64.85C39.3248 63.398 39.9188 62.386 40.8208 62.386ZM56.9913 61.308L53.7133 61.77C53.4053 61.814 53.2073 62.034 53.2073 62.276V62.364C53.2073 62.914 54.1093 63.178 54.1093 64.212V68.546C54.1093 69.69 53.4493 70.548 52.6353 70.548C51.8213 70.548 51.3593 69.866 51.3813 68.282L51.4473 61.77C51.4473 61.374 51.0513 61.242 50.4133 61.33L47.1353 61.77C46.8273 61.814 46.6293 62.034 46.6293 62.276V62.364C46.6293 62.914 47.5093 63.178 47.5093 64.212V67.886C47.5093 70.416 49.4013 72 51.4693 72C52.6353 72 53.4933 71.714 54.1093 71.208V71.23C54.1093 74.398 53.3393 75.366 52.3713 75.344C50.2813 75.3 50.9633 71.824 48.6973 71.824C47.7073 71.824 47.1353 72.484 47.1353 73.276C47.1353 75.234 49.4673 76.4 51.9533 76.4C55.1653 76.4 57.9593 74.508 57.9593 70.614V61.77C57.9593 61.374 57.6293 61.22 56.9913 61.308ZM71.5396 62.474V62.386C71.5396 62.056 71.3636 61.814 71.0116 61.77L68.3056 61.374C67.6676 61.286 67.2496 61.528 67.2496 62.012V62.144C66.6116 61.572 65.7316 61.22 64.5876 61.22C61.8156 61.22 59.3736 63.442 59.3736 66.72C59.3736 70.328 61.9036 72.22 64.5656 72.22C65.6436 72.22 66.6116 71.868 67.2496 71.252V71.45C67.2496 71.78 67.4916 72 67.8216 72H70.9676C71.2536 72 71.4516 71.846 71.4516 71.582V71.494C71.4516 70.878 70.5716 70.614 70.5716 69.602V64.454C70.5716 63.244 71.5396 62.936 71.5396 62.474ZM65.4456 71.142C63.7956 71.076 63.0696 66.852 63.1356 65.004C63.2016 63.244 63.7956 62.298 64.8736 62.298C65.8856 62.298 66.8536 63.398 66.8536 65.048V69.294C66.8536 70.482 66.1936 71.164 65.4456 71.142ZM91.9304 56.38H89.0484C88.7404 56.38 88.5204 56.534 88.5204 56.798V56.886C88.5204 57.502 89.4884 57.766 89.4884 58.778V67.336L83.1304 58.8C82.3824 57.832 83.5484 57.348 83.5484 56.886V56.798C83.5484 56.534 83.3504 56.38 83.0424 56.38H77.8724C77.5424 56.38 77.3444 56.534 77.3444 56.798V56.886C77.3444 57.502 78.2244 57.788 78.2244 58.8V69.58C78.2244 70.592 77.3444 70.878 77.3444 71.494V71.582C77.3444 71.846 77.5424 72 77.8724 72H80.6884C81.0184 72 81.2384 71.846 81.2384 71.582V71.494C81.2384 70.878 80.2044 70.592 80.2044 69.58V60.89L88.0364 71.274C88.3664 71.736 88.6744 72 89.2024 72H90.4564C91.0944 72 91.4684 71.626 91.4684 70.966V58.778C91.4684 57.766 92.4584 57.502 92.4584 56.886V56.798C92.4584 56.534 92.2384 56.38 91.9304 56.38ZM102.387 68.524C101.991 69.052 101.133 69.492 100.033 69.492C98.8011 69.492 97.8331 68.81 97.2611 67.71C97.9211 67.732 98.6911 67.688 99.4611 67.556C101.529 67.226 102.981 65.95 102.981 64.41C102.981 62.474 101.221 61.198 98.6031 61.22C95.6551 61.242 93.1471 63.376 93.1471 66.654C93.1471 69.976 95.4571 72.22 98.7131 72.22C101.881 72.22 103.135 70.042 103.201 68.832C103.223 68.348 102.695 68.216 102.387 68.524ZM98.1411 62.386C98.8671 62.386 99.4171 63.156 99.4391 64.124C99.4391 65.642 98.9111 66.324 97.9431 66.5C97.6571 66.544 97.2611 66.566 96.8431 66.544C96.7111 66.016 96.6451 65.444 96.6451 64.85C96.6451 63.398 97.2391 62.386 98.1411 62.386ZM108.746 72.22C111.144 72.22 112.398 70.438 112.398 68.744C112.398 68.326 111.87 68.194 111.562 68.59C111.32 68.986 110.968 69.404 110.11 69.404C109.56 69.404 109.12 68.964 109.12 68.216V62.936H111.386C111.672 62.936 111.892 62.716 111.892 62.43V61.946C111.892 61.66 111.672 61.44 111.386 61.44H109.12V59.218C109.12 58.866 108.878 58.646 108.526 58.646H108.02C107.734 58.646 107.492 58.866 107.426 59.218C107.14 60.56 106.084 61.44 104.742 61.44H104.324C104.016 61.44 103.818 61.638 103.818 61.946V62.43C103.818 62.716 104.038 62.936 104.324 62.936H105.16V68.15C105.16 70.812 106.568 72.22 108.746 72.22ZM127.541 61.22C126.485 61.22 125.847 61.88 125.847 62.76C125.847 64.674 128.003 64.652 128.003 66.478C128.003 68.304 126.705 70.768 125.209 70.768C124.461 70.768 124.153 70.086 124.175 68.964L124.241 61.968C124.241 61.374 123.845 61.198 123.207 61.308L120.193 61.77C119.885 61.814 119.687 62.034 119.687 62.276V62.364C119.687 62.914 120.567 63.178 120.567 64.212V66.5C120.567 68.304 119.973 70.768 118.587 70.768C117.927 70.768 117.531 70.086 117.553 69.052L117.641 61.968C117.641 61.374 117.245 61.242 116.585 61.33L113.307 61.77C113.021 61.814 112.823 62.034 112.823 62.276V62.364C112.823 62.914 113.703 63.178 113.703 64.212V67.446C113.703 71.34 115.947 72.22 117.685 72.22C119.313 72.22 120.479 71.56 121.205 70.504C121.953 71.846 123.207 72.22 124.307 72.22C127.563 72.22 129.917 69.36 129.917 64.608C129.917 62.32 128.993 61.22 127.541 61.22ZM137.053 72.22C140.265 72.22 142.927 69.954 142.927 66.742C142.927 63.508 140.199 61.22 136.899 61.22C133.753 61.22 130.959 63.442 130.959 66.698C130.959 69.888 133.687 72.22 137.053 72.22ZM137.515 71.142C135.733 71.142 134.853 66.83 134.853 65.048C134.853 63.266 135.227 62.298 136.283 62.298C138.021 62.298 138.923 66.72 138.923 68.436C138.923 70.086 138.549 71.142 137.515 71.142ZM151.329 61.22C149.811 61.22 148.777 61.99 148.293 63.398V61.792C148.293 61.352 148.073 61.044 147.501 61.308L144.399 62.76C144.069 62.936 143.893 63.134 143.893 63.398V63.464C143.893 64.102 144.949 64.19 144.949 65.224V69.602C144.949 70.614 144.069 70.878 144.069 71.494V71.582C144.069 71.846 144.289 72 144.597 72H149.327C149.635 72 149.855 71.846 149.855 71.582V71.494C149.855 70.878 148.689 70.614 148.689 69.602V65.51C148.689 64.542 148.799 63.398 149.503 63.398C150.603 63.398 149.701 65.466 151.703 65.466C152.979 65.466 153.397 64.498 153.397 63.398C153.397 62.166 152.627 61.22 151.329 61.22ZM165.675 70.152L162.925 66.126C164.487 65.18 165.301 63.882 165.301 62.87C165.301 61.968 164.773 61.242 163.585 61.242C160.901 61.242 162.463 65.422 158.679 65.752V55.918C158.679 55.5 158.305 55.17 157.689 55.456L154.169 57.084C153.861 57.238 153.663 57.348 153.663 57.59V57.678C153.663 58.228 154.719 58.514 154.719 59.548V69.58C154.719 70.592 153.839 70.856 153.839 71.494V71.582C153.839 71.846 154.059 72 154.367 72H159.141C159.449 72 159.669 71.846 159.669 71.582V71.494C159.669 70.856 158.679 70.592 158.679 69.58V67.314C159.097 67.314 159.471 67.27 159.845 67.204L161.737 70.152C162.089 70.702 161.275 70.856 161.275 71.472V71.56C161.275 71.824 161.473 72 161.781 72H166.379C166.687 72 166.885 71.846 166.885 71.582V71.494C166.885 70.856 165.983 70.636 165.675 70.152Z" fill="black"/>
<g opacity="0.9">
<path fill-rule="evenodd" clip-rule="evenodd" d="M82.9999 38C81.1614 35.4306 79.8816 33.1163 79.1606 31.057C77.9626 27.6491 77.2222 22.9066 77.2222 17.6521C77.2222 11.3232 79.7513 4.86839 83.0041 0C86.3734 5.04466 88.7776 11.4491 88.7776 17.6521C88.7776 22.9066 88.0372 27.6491 86.8392 31.057C86.1182 33.1163 84.8385 35.4306 82.9999 38ZM76.8077 35.672L76.8243 35.6888L77.0397 35.8825V35.891L77.0645 35.9162V35.9078C77.1034 35.9473 77.1223 35.9636 77.138 35.9772C77.1491 35.9867 77.1585 35.9949 77.1722 36.0089L77.2219 36.051C73.4609 34.5266 69.1116 31.301 65.2429 27.3679C60.9102 22.9632 58.1432 16.672 57 10.7177C57.997 10.9132 59.1739 11.7672 60.6247 12.8198C61.9226 13.7615 63.4396 14.8621 65.2429 15.7927C66.0299 23.0019 71.2904 30.1977 76.4267 35.3014L76.8077 35.672ZM89.5735 35.3015L89.1925 35.6721L89.1759 35.689L88.9605 35.8827V35.8911L88.9356 35.9164V35.9079C88.8968 35.9474 88.8779 35.9638 88.8622 35.9773C88.8511 35.9869 88.8417 35.995 88.828 36.009L88.7782 36.0511C92.5393 34.5267 96.8886 31.3011 100.757 27.368C105.09 22.9633 107.857 16.6721 109 10.7178C108.003 10.9134 106.826 11.7673 105.375 12.8199C104.078 13.7616 102.561 14.8623 100.757 15.7928C99.9703 23.002 94.7098 30.1978 89.5735 35.3015ZM78.1855 34.1023L77.3047 33.17L77.2481 33.1028L77.1915 33.0356L77.143 32.9852L77.046 32.8676V32.8592L76.9814 32.792L76.6905 32.4308L76.6339 32.3636L76.5692 32.2796L76.3268 31.9688L75.7611 31.2045L75.551 30.9105L75.2762 30.5241V30.5157L75.2116 30.4233L75.0095 30.1209V30.1125L74.9287 29.9949L74.7509 29.7177L74.5974 29.4741C69.3606 21.0325 67.3565 12.658 69.2637 2.92285C70.8315 4.00641 73.7327 6.23231 76.448 9.53337C75.7126 12.1961 75.2762 14.9679 75.2762 17.7566C75.2762 22.7796 75.9793 29.5413 78.1855 34.1023ZM90.743 17.7446C90.743 22.965 89.9967 29.6373 87.8146 34.1023C95.6586 25.9864 98.9682 14.0602 96.7862 2.92285C95.2125 4.00553 92.2923 6.22964 89.5668 9.52804C90.313 12.1886 90.743 14.9666 90.743 17.7446Z" fill="#49A992"/>
</g>
</svg>
