<svg xmlns="http://www.w3.org/2000/svg" width="49" height="48" fill="none" viewBox="0 0 49 48"><path fill="#2298F6" fill-rule="evenodd" d="M24.3516 48C37.6064 48 48.3516 37.2548 48.3516 24C48.3516 10.7452 37.6064 0 24.3516 0C11.0967 0 0.351562 10.7452 0.351562 24C0.351562 37.2548 11.0967 48 24.3516 48Z" clip-rule="evenodd" opacity=".1"/><path fill="#2298F6" fill-rule="evenodd" d="M23.434 31.8358L23.565 38.2856H24.5309L24.588 35.4482C25.5783 35.4798 26.5419 35.3158 27.2912 34.9394C28.0911 34.5384 28.7508 33.8195 28.7164 32.8034C28.6774 31.6905 27.9863 31.0608 27.0915 30.7609C26.4196 30.535 25.5626 30.4638 24.6887 30.4335L24.7376 28.0355C25.7081 28.0233 26.6304 28.1143 27.3698 28.3092C28.3811 28.5753 28.7723 28.9588 28.8369 29.2506C28.9062 29.8166 28.4835 30.053 28.136 30.2135C27.7843 30.4883 28.7351 31.4081 29.0861 31.128C30.0835 30.6669 30.4013 29.7192 30.1999 28.9249C29.7993 27.1216 27.0845 26.6133 24.7661 26.632L25.0077 14.6947C25.5026 14.3773 25.8322 13.8199 25.8322 13.1879C25.8322 12.2022 25.0316 11.3998 24.0477 11.3998C23.0643 11.3998 22.2638 12.2022 22.2638 13.1879C22.2638 13.8205 22.5927 14.3773 23.0876 14.6953L23.3304 26.7003C21.2065 26.8123 19.7818 26.5375 18.9696 26.0893C18.2943 25.7175 18.0579 25.2483 18.1394 24.8375C18.2739 24.5789 18.3449 24.5673 18.4585 24.5807C19.1891 24.6671 19.9908 24.4704 20.6027 24.101C21.4446 23.5939 22.3098 22.6426 22.262 21.6598C22.2428 21.2537 22.1514 21.0372 21.7765 20.8872C20.8222 20.5073 19.2945 20.5411 18.4259 21.0873C17.6632 21.5682 16.9255 22.4722 16.9744 23.3744L16.9755 23.3908C16.9799 23.4488 16.9866 23.539 16.9272 23.8769C16.9092 23.9072 16.8906 23.951 16.8766 23.9971C16.4522 25.3767 16.9762 26.5929 18.2943 27.3195C19.4308 27.9462 21.1465 28.2159 23.3583 28.1056L23.4055 30.4306C22.1473 30.4265 21.1547 30.2718 20.484 30.0086C20.0916 29.8546 19.8558 29.6812 19.7288 29.526C19.6171 29.3877 19.5705 29.2441 19.5909 29.0568C19.6304 28.6711 19.3504 28.3256 18.9661 28.2853C18.5813 28.2456 18.2372 28.5257 18.1965 28.9109C18.1382 29.4764 18.2995 29.9911 18.6442 30.4142C18.9749 30.8198 19.4459 31.1093 19.9734 31.3159C20.8694 31.6678 22.0629 31.8335 23.434 31.8358ZM20.1601 33.8593C20.7935 34.3781 21.7576 34.8969 22.5017 35.1543C22.8673 35.2815 23.0845 33.8161 22.7189 33.6901C22.1105 33.4788 21.537 33.1736 21.0456 32.7715C20.7469 32.5264 20.305 32.5713 20.0605 32.8719C19.816 33.1713 19.8608 33.6142 20.1601 33.8593ZM26.6635 33.6842C27.1648 33.4326 27.3255 33.1449 27.3156 32.8531C27.3074 32.6144 27.2411 32.4825 27.163 32.3927C27.0746 32.2905 26.9197 32.1843 26.646 32.0915C26.1704 31.9328 25.5183 31.8686 24.6601 31.8377L24.6153 34.0442C25.4484 34.0728 26.1721 33.9304 26.6635 33.6842ZM29.3265 26.1358C28.9813 26.3109 28.7909 26.591 28.9649 26.9365C29.1996 27.2528 29.6933 27.5242 29.9588 27.3894C30.6248 27.0509 31.1436 26.5799 31.4259 25.9672C31.7101 25.3503 31.7159 24.6699 31.5086 23.9958C31.4941 23.9497 31.4754 23.906 31.4597 23.8814L31.4591 23.8774C31.3729 23.7049 31.3904 23.5601 31.4039 23.449L31.4039 23.449C31.4071 23.4221 31.4101 23.3972 31.4114 23.3743C31.4597 22.4721 30.7226 21.5681 29.9605 21.0872C29.0919 20.541 27.5642 20.5071 26.6099 20.8871C26.235 21.037 26.1436 21.2535 26.1238 21.6597C26.0772 22.6425 26.9418 23.5937 27.7831 24.1009C28.3961 24.4703 29.1973 24.6669 29.9273 24.5806C30.1556 24.5531 30.2126 24.6273 30.2481 24.842L30.249 24.8417L30.2499 24.8414C30.2609 25.0492 30.2237 25.2266 30.1538 25.3783C30.0374 25.6322 29.7905 25.9007 29.3265 26.1358ZM33.4815 20.382C32.882 20.3675 32.2268 20.157 31.5127 19.9277C30.1012 19.4743 28.4599 18.9472 26.5654 19.7138V14.7463C28.9527 12.3189 31.0559 13.6832 33.3588 15.1769C35.1103 16.313 36.9773 17.524 39.1726 17.1985C38.8332 17.8971 38.2941 18.5816 35.9105 18.0155L36.9765 19.0847C35.9524 19.4511 34.9289 19.3992 33.903 18.7707C33.6912 19.1424 33.8742 19.4924 34.0367 19.8032C34.1266 19.975 34.2102 20.1349 34.2174 20.2798C33.9822 20.3586 33.7365 20.3884 33.4815 20.382ZM14.0578 19.8032C13.9679 19.9749 13.8843 20.1347 13.8769 20.2797C14.665 20.5423 15.5637 20.2538 16.5816 19.9269C17.9933 19.4736 19.6345 18.9466 21.5289 19.7136L21.5289 14.7461C19.1423 12.3188 17.0392 13.683 14.7364 15.1767C12.9849 16.3128 11.1179 17.5238 8.92285 17.1984C9.26112 17.8969 9.80082 18.5815 12.1844 18.0154L11.1189 19.0845C12.1419 19.451 13.1666 19.3991 14.1924 18.7705C14.4036 19.1423 14.2205 19.4923 14.0578 19.8032Z" clip-rule="evenodd"/></svg>