<svg width="174" height="16" viewBox="0 0 174 16" fill="none" xmlns="http://www.w3.org/2000/svg">
<path d="M7.93611 15.294C10.6031 15.294 12.9761 13.992 14.2361 11.892L11.3381 10.212C10.7291 11.325 9.42711 12.018 7.93611 12.018C6.63411 12.018 5.58411 11.619 4.80711 10.821C4.03011 10.023 3.65211 8.973 3.65211 7.65C3.65211 6.327 4.03011 5.277 4.80711 4.479C5.58411 3.681 6.63411 3.282 7.93611 3.282C9.42711 3.282 10.6871 3.933 11.3381 5.088L14.2361 3.408C12.9551 1.308 10.5611 0.00599903 7.93611 0.00599903C5.73111 0.00599903 3.90411 0.741 2.45511 2.211C1.00611 3.66 0.292109 5.487 0.292109 7.65C0.292109 9.813 1.00611 11.64 2.45511 13.11C3.90411 14.559 5.73111 15.294 7.93611 15.294ZM29.8377 13.089C31.3287 11.619 32.0637 9.813 32.0637 7.65C32.0637 5.487 31.3287 3.681 29.8377 2.211C28.3467 0.741 26.5407 0.00599903 24.4197 0.00599903C22.2987 0.00599903 20.4927 0.741 19.0017 2.211C17.5107 3.681 16.7757 5.487 16.7757 7.65C16.7757 9.813 17.5107 11.619 19.0017 13.089C20.4927 14.559 22.2987 15.294 24.4197 15.294C26.5407 15.294 28.3467 14.559 29.8377 13.089ZM21.3537 10.8C20.5347 9.981 20.1357 8.931 20.1357 7.65C20.1357 6.369 20.5347 5.319 21.3537 4.5C22.1727 3.681 23.2017 3.282 24.4197 3.282C25.6377 3.282 26.6457 3.681 27.4647 4.5C28.2837 5.319 28.7037 6.369 28.7037 7.65C28.7037 8.931 28.2837 9.981 27.4647 10.8C26.6457 11.619 25.6377 12.018 24.4197 12.018C23.2017 12.018 22.1727 11.619 21.3537 10.8ZM47.0955 15L43.9665 9.603C45.5835 8.763 46.6755 7.125 46.6755 5.34C46.6755 3.933 46.1925 2.757 45.2055 1.77C44.2185 0.782999 43.0425 0.299999 41.6355 0.299999H35.7555V15H39.1155V10.17H40.7115L43.4835 15H47.0955ZM41.6355 3.45C42.5595 3.45 43.3155 4.269 43.3155 5.34C43.3155 6.411 42.5595 7.23 41.6355 7.23H39.1155V3.45H41.6355ZM62.7024 13.089C64.1934 11.619 64.9284 9.813 64.9284 7.65C64.9284 5.487 64.1934 3.681 62.7024 2.211C61.2114 0.741 59.4054 0.00599903 57.2844 0.00599903C55.1634 0.00599903 53.3574 0.741 51.8664 2.211C50.3754 3.681 49.6404 5.487 49.6404 7.65C49.6404 9.813 50.3754 11.619 51.8664 13.089C53.3574 14.559 55.1634 15.294 57.2844 15.294C59.4054 15.294 61.2114 14.559 62.7024 13.089ZM54.2184 10.8C53.3994 9.981 53.0004 8.931 53.0004 7.65C53.0004 6.369 53.3994 5.319 54.2184 4.5C55.0374 3.681 56.0664 3.282 57.2844 3.282C58.5024 3.282 59.5104 3.681 60.3294 4.5C61.1484 5.319 61.5684 6.369 61.5684 7.65C61.5684 8.931 61.1484 9.981 60.3294 10.8C59.5104 11.619 58.5024 12.018 57.2844 12.018C56.0664 12.018 55.0374 11.619 54.2184 10.8ZM76.8102 8.28L71.1402 0.299999H68.6202V15H71.9802V7.02L77.6502 15H80.1702V0.299999H76.8102V8.28ZM97.5085 15L92.5105 0.299999H88.2265L83.2285 15H86.9035L87.6385 12.69H93.0985L93.8335 15H97.5085ZM90.3685 4.143L92.0905 9.54H88.6465L90.3685 4.143ZM107.612 0.299999V15H110.972V10.38H113.177C114.626 10.38 115.844 9.897 116.831 8.91C117.818 7.923 118.322 6.747 118.322 5.34C118.322 3.933 117.818 2.757 116.831 1.77C115.844 0.782999 114.626 0.299999 113.177 0.299999H107.612ZM110.972 7.23V3.45H113.177C114.206 3.45 114.962 4.269 114.962 5.34C114.962 6.411 114.206 7.23 113.177 7.23H110.972ZM133.342 15L128.344 0.299999H124.06L119.062 15H122.737L123.472 12.69H128.932L129.667 15H133.342ZM126.202 4.143L127.924 9.54H124.48L126.202 4.143ZM144.586 8.28L138.916 0.299999H136.396V15H139.756V7.02L145.426 15H147.946V0.299999H144.586V8.28ZM155.624 9.162H160.874V5.97H155.624V3.534H161.399V0.299999H152.264V15H161.504V11.766H155.624V9.162ZM168.56 0.299999H165.2V15H173.81V11.766H168.56V0.299999Z" fill="#2298F6"/>
</svg>
